<mxfile host="app.diagrams.net" agent="Mozilla/5.0 (Windows NT 10.0; Win64; x64) AppleWebKit/537.36 (KHTML, like Gecko) Chrome/141.0.0.0 Safari/537.36" version="28.2.5">
  <diagram name="Página-1" id="y07aBHkaTq7nBDifq1I3">
    <mxGraphModel dx="3679" dy="2567" grid="1" gridSize="10" guides="1" tooltips="1" connect="1" arrows="1" fold="1" page="1" pageScale="1" pageWidth="827" pageHeight="1169" background="none" math="0" shadow="0">
      <root>
        <mxCell id="0" />
        <mxCell id="1" parent="0" />
        <mxCell id="u1IOhcsidIoVOhu67Gek-1" value="Cliente" style="shape=umlActor;verticalLabelPosition=bottom;verticalAlign=top;html=1;outlineConnect=0;" parent="1" vertex="1">
          <mxGeometry x="20" y="60" width="30" height="60" as="geometry" />
        </mxCell>
        <mxCell id="gtQ-v5I-BbY9PMy45WMs-3" value="Lojista" style="shape=umlActor;verticalLabelPosition=bottom;verticalAlign=top;html=1;outlineConnect=0;" vertex="1" parent="1">
          <mxGeometry x="30" y="585" width="30" height="60" as="geometry" />
        </mxCell>
        <mxCell id="gtQ-v5I-BbY9PMy45WMs-38" style="edgeStyle=orthogonalEdgeStyle;rounded=0;orthogonalLoop=1;jettySize=auto;html=1;entryX=1;entryY=0.5;entryDx=0;entryDy=0;" edge="1" parent="1" source="gtQ-v5I-BbY9PMy45WMs-8" target="gtQ-v5I-BbY9PMy45WMs-20">
          <mxGeometry relative="1" as="geometry">
            <Array as="points">
              <mxPoint x="460" y="615" />
            </Array>
          </mxGeometry>
        </mxCell>
        <mxCell id="gtQ-v5I-BbY9PMy45WMs-8" value="Cadastrar Produto" style="ellipse;whiteSpace=wrap;html=1;" vertex="1" parent="1">
          <mxGeometry x="410" y="720" width="100" height="70" as="geometry" />
        </mxCell>
        <mxCell id="gtQ-v5I-BbY9PMy45WMs-39" style="edgeStyle=orthogonalEdgeStyle;rounded=0;orthogonalLoop=1;jettySize=auto;html=1;entryX=1;entryY=0.5;entryDx=0;entryDy=0;" edge="1" parent="1" source="gtQ-v5I-BbY9PMy45WMs-10" target="gtQ-v5I-BbY9PMy45WMs-20">
          <mxGeometry relative="1" as="geometry">
            <Array as="points">
              <mxPoint x="570" y="615" />
            </Array>
          </mxGeometry>
        </mxCell>
        <mxCell id="gtQ-v5I-BbY9PMy45WMs-10" value="Editar Produto" style="ellipse;whiteSpace=wrap;html=1;" vertex="1" parent="1">
          <mxGeometry x="520" y="720" width="100" height="70" as="geometry" />
        </mxCell>
        <mxCell id="gtQ-v5I-BbY9PMy45WMs-12" value="Deletar Produto" style="ellipse;whiteSpace=wrap;html=1;" vertex="1" parent="1">
          <mxGeometry x="630" y="720" width="100" height="70" as="geometry" />
        </mxCell>
        <mxCell id="gtQ-v5I-BbY9PMy45WMs-36" style="edgeStyle=orthogonalEdgeStyle;rounded=0;orthogonalLoop=1;jettySize=auto;html=1;entryX=1;entryY=0.5;entryDx=0;entryDy=0;exitX=0.5;exitY=0;exitDx=0;exitDy=0;" edge="1" parent="1" source="gtQ-v5I-BbY9PMy45WMs-14" target="gtQ-v5I-BbY9PMy45WMs-20">
          <mxGeometry relative="1" as="geometry">
            <Array as="points">
              <mxPoint x="240" y="615" />
            </Array>
          </mxGeometry>
        </mxCell>
        <mxCell id="gtQ-v5I-BbY9PMy45WMs-14" value="Aprovar Pedido" style="ellipse;whiteSpace=wrap;html=1;" vertex="1" parent="1">
          <mxGeometry x="190" y="720" width="100" height="70" as="geometry" />
        </mxCell>
        <mxCell id="gtQ-v5I-BbY9PMy45WMs-37" style="edgeStyle=orthogonalEdgeStyle;rounded=0;orthogonalLoop=1;jettySize=auto;html=1;entryX=1;entryY=0.5;entryDx=0;entryDy=0;" edge="1" parent="1" source="gtQ-v5I-BbY9PMy45WMs-16" target="gtQ-v5I-BbY9PMy45WMs-20">
          <mxGeometry relative="1" as="geometry">
            <Array as="points">
              <mxPoint x="350" y="685" />
              <mxPoint x="350" y="615" />
            </Array>
          </mxGeometry>
        </mxCell>
        <mxCell id="gtQ-v5I-BbY9PMy45WMs-16" value="Negar Pedido" style="ellipse;whiteSpace=wrap;html=1;" vertex="1" parent="1">
          <mxGeometry x="300" y="720" width="100" height="70" as="geometry" />
        </mxCell>
        <mxCell id="gtQ-v5I-BbY9PMy45WMs-46" style="edgeStyle=orthogonalEdgeStyle;rounded=0;orthogonalLoop=1;jettySize=auto;html=1;" edge="1" parent="1" source="gtQ-v5I-BbY9PMy45WMs-19" target="gtQ-v5I-BbY9PMy45WMs-3">
          <mxGeometry relative="1" as="geometry" />
        </mxCell>
        <mxCell id="gtQ-v5I-BbY9PMy45WMs-19" value="Cadastrar" style="ellipse;whiteSpace=wrap;html=1;" vertex="1" parent="1">
          <mxGeometry x="-120" y="580" width="100" height="70" as="geometry" />
        </mxCell>
        <mxCell id="gtQ-v5I-BbY9PMy45WMs-44" style="edgeStyle=orthogonalEdgeStyle;rounded=0;orthogonalLoop=1;jettySize=auto;html=1;" edge="1" parent="1" source="gtQ-v5I-BbY9PMy45WMs-20" target="gtQ-v5I-BbY9PMy45WMs-3">
          <mxGeometry relative="1" as="geometry" />
        </mxCell>
        <mxCell id="gtQ-v5I-BbY9PMy45WMs-20" value="Fazer Login" style="ellipse;whiteSpace=wrap;html=1;" vertex="1" parent="1">
          <mxGeometry x="115" y="580" width="100" height="70" as="geometry" />
        </mxCell>
        <mxCell id="gtQ-v5I-BbY9PMy45WMs-21" value="Cadastrar" style="ellipse;whiteSpace=wrap;html=1;" vertex="1" parent="1">
          <mxGeometry x="-15" y="-50" width="100" height="70" as="geometry" />
        </mxCell>
        <mxCell id="gtQ-v5I-BbY9PMy45WMs-47" style="edgeStyle=orthogonalEdgeStyle;rounded=0;orthogonalLoop=1;jettySize=auto;html=1;" edge="1" parent="1" source="gtQ-v5I-BbY9PMy45WMs-22" target="u1IOhcsidIoVOhu67Gek-1">
          <mxGeometry relative="1" as="geometry" />
        </mxCell>
        <mxCell id="gtQ-v5I-BbY9PMy45WMs-22" value="Fazer Login" style="ellipse;whiteSpace=wrap;html=1;" vertex="1" parent="1">
          <mxGeometry x="110" y="55" width="100" height="70" as="geometry" />
        </mxCell>
        <mxCell id="gtQ-v5I-BbY9PMy45WMs-54" style="edgeStyle=orthogonalEdgeStyle;rounded=0;orthogonalLoop=1;jettySize=auto;html=1;" edge="1" parent="1" source="gtQ-v5I-BbY9PMy45WMs-23" target="u1IOhcsidIoVOhu67Gek-1">
          <mxGeometry relative="1" as="geometry" />
        </mxCell>
        <mxCell id="gtQ-v5I-BbY9PMy45WMs-23" value="Pesquisar Produtos" style="ellipse;whiteSpace=wrap;html=1;" vertex="1" parent="1">
          <mxGeometry x="-130" y="55" width="100" height="70" as="geometry" />
        </mxCell>
        <mxCell id="gtQ-v5I-BbY9PMy45WMs-56" style="edgeStyle=orthogonalEdgeStyle;rounded=0;orthogonalLoop=1;jettySize=auto;html=1;entryX=0;entryY=0.5;entryDx=0;entryDy=0;" edge="1" parent="1" source="gtQ-v5I-BbY9PMy45WMs-24" target="gtQ-v5I-BbY9PMy45WMs-23">
          <mxGeometry relative="1" as="geometry" />
        </mxCell>
        <mxCell id="gtQ-v5I-BbY9PMy45WMs-24" value="Aplicar Filtro à Consulta" style="ellipse;whiteSpace=wrap;html=1;" vertex="1" parent="1">
          <mxGeometry x="-230" y="150" width="100" height="70" as="geometry" />
        </mxCell>
        <mxCell id="gtQ-v5I-BbY9PMy45WMs-57" style="edgeStyle=orthogonalEdgeStyle;rounded=0;orthogonalLoop=1;jettySize=auto;html=1;entryX=0;entryY=0.5;entryDx=0;entryDy=0;" edge="1" parent="1" source="gtQ-v5I-BbY9PMy45WMs-25" target="gtQ-v5I-BbY9PMy45WMs-23">
          <mxGeometry relative="1" as="geometry">
            <Array as="points">
              <mxPoint x="-300" y="90" />
            </Array>
          </mxGeometry>
        </mxCell>
        <mxCell id="gtQ-v5I-BbY9PMy45WMs-25" value="Aplicar Classificação à consulta" style="ellipse;whiteSpace=wrap;html=1;" vertex="1" parent="1">
          <mxGeometry x="-350" y="150" width="100" height="70" as="geometry" />
        </mxCell>
        <mxCell id="gtQ-v5I-BbY9PMy45WMs-48" style="edgeStyle=orthogonalEdgeStyle;rounded=0;orthogonalLoop=1;jettySize=auto;html=1;entryX=1;entryY=0.5;entryDx=0;entryDy=0;" edge="1" parent="1" source="gtQ-v5I-BbY9PMy45WMs-26" target="gtQ-v5I-BbY9PMy45WMs-22">
          <mxGeometry relative="1" as="geometry" />
        </mxCell>
        <mxCell id="gtQ-v5I-BbY9PMy45WMs-26" value="Cadastrar uma Loja" style="ellipse;whiteSpace=wrap;html=1;" vertex="1" parent="1">
          <mxGeometry x="190" y="150" width="100" height="70" as="geometry" />
        </mxCell>
        <mxCell id="gtQ-v5I-BbY9PMy45WMs-98" style="edgeStyle=orthogonalEdgeStyle;rounded=0;orthogonalLoop=1;jettySize=auto;html=1;exitX=0.5;exitY=0;exitDx=0;exitDy=0;" edge="1" parent="1" source="gtQ-v5I-BbY9PMy45WMs-28" target="gtQ-v5I-BbY9PMy45WMs-96">
          <mxGeometry relative="1" as="geometry" />
        </mxCell>
        <mxCell id="gtQ-v5I-BbY9PMy45WMs-28" value="Adicionar Produto ao Carrinho" style="ellipse;whiteSpace=wrap;html=1;" vertex="1" parent="1">
          <mxGeometry x="1252" y="240" width="100" height="70" as="geometry" />
        </mxCell>
        <mxCell id="gtQ-v5I-BbY9PMy45WMs-60" style="edgeStyle=orthogonalEdgeStyle;rounded=0;orthogonalLoop=1;jettySize=auto;html=1;entryX=0.5;entryY=1;entryDx=0;entryDy=0;" edge="1" parent="1" source="gtQ-v5I-BbY9PMy45WMs-29" target="gtQ-v5I-BbY9PMy45WMs-58">
          <mxGeometry relative="1" as="geometry" />
        </mxCell>
        <mxCell id="gtQ-v5I-BbY9PMy45WMs-29" value="Finalizar Pedido" style="ellipse;whiteSpace=wrap;html=1;" vertex="1" parent="1">
          <mxGeometry x="1252" y="420" width="100" height="70" as="geometry" />
        </mxCell>
        <mxCell id="gtQ-v5I-BbY9PMy45WMs-50" style="edgeStyle=orthogonalEdgeStyle;rounded=0;orthogonalLoop=1;jettySize=auto;html=1;entryX=1;entryY=0.5;entryDx=0;entryDy=0;" edge="1" parent="1" source="gtQ-v5I-BbY9PMy45WMs-30" target="gtQ-v5I-BbY9PMy45WMs-22">
          <mxGeometry relative="1" as="geometry">
            <Array as="points">
              <mxPoint x="350" y="90" />
            </Array>
          </mxGeometry>
        </mxCell>
        <mxCell id="gtQ-v5I-BbY9PMy45WMs-30" value="Adicionar Produto aos Favoritos" style="ellipse;whiteSpace=wrap;html=1;" vertex="1" parent="1">
          <mxGeometry x="300" y="150" width="100" height="70" as="geometry" />
        </mxCell>
        <mxCell id="gtQ-v5I-BbY9PMy45WMs-42" style="edgeStyle=orthogonalEdgeStyle;rounded=0;orthogonalLoop=1;jettySize=auto;html=1;entryX=1;entryY=0.5;entryDx=0;entryDy=0;" edge="1" parent="1" source="gtQ-v5I-BbY9PMy45WMs-31" target="gtQ-v5I-BbY9PMy45WMs-20">
          <mxGeometry relative="1" as="geometry">
            <Array as="points">
              <mxPoint x="790" y="615" />
            </Array>
          </mxGeometry>
        </mxCell>
        <mxCell id="gtQ-v5I-BbY9PMy45WMs-31" value="Editar Loja" style="ellipse;whiteSpace=wrap;html=1;" vertex="1" parent="1">
          <mxGeometry x="740" y="720" width="100" height="70" as="geometry" />
        </mxCell>
        <mxCell id="gtQ-v5I-BbY9PMy45WMs-43" style="edgeStyle=orthogonalEdgeStyle;rounded=0;orthogonalLoop=1;jettySize=auto;html=1;entryX=1;entryY=0.5;entryDx=0;entryDy=0;" edge="1" parent="1" source="gtQ-v5I-BbY9PMy45WMs-33" target="gtQ-v5I-BbY9PMy45WMs-20">
          <mxGeometry relative="1" as="geometry">
            <Array as="points">
              <mxPoint x="900" y="615" />
            </Array>
          </mxGeometry>
        </mxCell>
        <mxCell id="gtQ-v5I-BbY9PMy45WMs-33" value="Fazer Logout" style="ellipse;whiteSpace=wrap;html=1;" vertex="1" parent="1">
          <mxGeometry x="850" y="720" width="100" height="70" as="geometry" />
        </mxCell>
        <mxCell id="gtQ-v5I-BbY9PMy45WMs-41" style="edgeStyle=orthogonalEdgeStyle;rounded=0;orthogonalLoop=1;jettySize=auto;html=1;entryX=1;entryY=0.5;entryDx=0;entryDy=0;exitX=0.5;exitY=0;exitDx=0;exitDy=0;" edge="1" parent="1" source="gtQ-v5I-BbY9PMy45WMs-12">
          <mxGeometry relative="1" as="geometry">
            <mxPoint x="680" y="720" as="sourcePoint" />
            <mxPoint x="214.999999999995" y="615" as="targetPoint" />
            <Array as="points">
              <mxPoint x="680" y="615" />
            </Array>
          </mxGeometry>
        </mxCell>
        <mxCell id="gtQ-v5I-BbY9PMy45WMs-53" style="edgeStyle=orthogonalEdgeStyle;rounded=0;orthogonalLoop=1;jettySize=auto;html=1;entryX=0.5;entryY=0;entryDx=0;entryDy=0;entryPerimeter=0;" edge="1" parent="1" source="gtQ-v5I-BbY9PMy45WMs-21" target="u1IOhcsidIoVOhu67Gek-1">
          <mxGeometry relative="1" as="geometry" />
        </mxCell>
        <mxCell id="gtQ-v5I-BbY9PMy45WMs-59" style="edgeStyle=orthogonalEdgeStyle;rounded=0;orthogonalLoop=1;jettySize=auto;html=1;entryX=0.5;entryY=1;entryDx=0;entryDy=0;" edge="1" parent="1" source="gtQ-v5I-BbY9PMy45WMs-58" target="gtQ-v5I-BbY9PMy45WMs-28">
          <mxGeometry relative="1" as="geometry" />
        </mxCell>
        <mxCell id="gtQ-v5I-BbY9PMy45WMs-58" value="Selecionar Endereço de Entrega" style="ellipse;whiteSpace=wrap;html=1;" vertex="1" parent="1">
          <mxGeometry x="1252" y="330" width="100" height="70" as="geometry" />
        </mxCell>
        <mxCell id="gtQ-v5I-BbY9PMy45WMs-62" style="edgeStyle=orthogonalEdgeStyle;rounded=0;orthogonalLoop=1;jettySize=auto;html=1;entryX=1;entryY=0.5;entryDx=0;entryDy=0;" edge="1" parent="1" source="gtQ-v5I-BbY9PMy45WMs-61" target="gtQ-v5I-BbY9PMy45WMs-22">
          <mxGeometry relative="1" as="geometry">
            <Array as="points">
              <mxPoint x="470" y="90" />
            </Array>
          </mxGeometry>
        </mxCell>
        <mxCell id="gtQ-v5I-BbY9PMy45WMs-61" value="Adicionar Endereço de Entrega" style="ellipse;whiteSpace=wrap;html=1;" vertex="1" parent="1">
          <mxGeometry x="420" y="150" width="100" height="70" as="geometry" />
        </mxCell>
        <mxCell id="gtQ-v5I-BbY9PMy45WMs-64" style="edgeStyle=orthogonalEdgeStyle;rounded=0;orthogonalLoop=1;jettySize=auto;html=1;" edge="1" parent="1" source="gtQ-v5I-BbY9PMy45WMs-63" target="gtQ-v5I-BbY9PMy45WMs-29">
          <mxGeometry relative="1" as="geometry" />
        </mxCell>
        <mxCell id="gtQ-v5I-BbY9PMy45WMs-63" value="Realizar Pagamento" style="ellipse;whiteSpace=wrap;html=1;" vertex="1" parent="1">
          <mxGeometry x="1252" y="510" width="100" height="70" as="geometry" />
        </mxCell>
        <mxCell id="gtQ-v5I-BbY9PMy45WMs-67" style="edgeStyle=orthogonalEdgeStyle;rounded=0;orthogonalLoop=1;jettySize=auto;html=1;entryX=0.5;entryY=1;entryDx=0;entryDy=0;" edge="1" parent="1" source="gtQ-v5I-BbY9PMy45WMs-66" target="gtQ-v5I-BbY9PMy45WMs-63">
          <mxGeometry relative="1" as="geometry">
            <mxPoint x="292" y="500" as="targetPoint" />
            <Array as="points" />
          </mxGeometry>
        </mxCell>
        <mxCell id="gtQ-v5I-BbY9PMy45WMs-66" value="Avaliar Produto" style="ellipse;whiteSpace=wrap;html=1;" vertex="1" parent="1">
          <mxGeometry x="1252" y="600" width="100" height="70" as="geometry" />
        </mxCell>
        <mxCell id="gtQ-v5I-BbY9PMy45WMs-69" style="edgeStyle=orthogonalEdgeStyle;rounded=0;orthogonalLoop=1;jettySize=auto;html=1;entryX=1;entryY=0.5;entryDx=0;entryDy=0;" edge="1" parent="1" source="gtQ-v5I-BbY9PMy45WMs-68" target="gtQ-v5I-BbY9PMy45WMs-66">
          <mxGeometry relative="1" as="geometry" />
        </mxCell>
        <mxCell id="gtQ-v5I-BbY9PMy45WMs-68" value="Editar Avaliação" style="ellipse;whiteSpace=wrap;html=1;" vertex="1" parent="1">
          <mxGeometry x="1372" y="600" width="100" height="70" as="geometry" />
        </mxCell>
        <mxCell id="gtQ-v5I-BbY9PMy45WMs-73" style="edgeStyle=orthogonalEdgeStyle;rounded=0;orthogonalLoop=1;jettySize=auto;html=1;" edge="1" parent="1" source="gtQ-v5I-BbY9PMy45WMs-72" target="gtQ-v5I-BbY9PMy45WMs-63">
          <mxGeometry relative="1" as="geometry" />
        </mxCell>
        <mxCell id="gtQ-v5I-BbY9PMy45WMs-72" value="Ver Código de Rastreio" style="ellipse;whiteSpace=wrap;html=1;" vertex="1" parent="1">
          <mxGeometry x="1372" y="510" width="100" height="70" as="geometry" />
        </mxCell>
        <mxCell id="gtQ-v5I-BbY9PMy45WMs-75" style="edgeStyle=orthogonalEdgeStyle;rounded=0;orthogonalLoop=1;jettySize=auto;html=1;entryX=1;entryY=0.5;entryDx=0;entryDy=0;" edge="1" parent="1" source="gtQ-v5I-BbY9PMy45WMs-74" target="gtQ-v5I-BbY9PMy45WMs-22">
          <mxGeometry relative="1" as="geometry">
            <Array as="points">
              <mxPoint x="590" y="90" />
            </Array>
          </mxGeometry>
        </mxCell>
        <mxCell id="gtQ-v5I-BbY9PMy45WMs-74" value="Pesquisar Produtos Pedidos" style="ellipse;whiteSpace=wrap;html=1;" vertex="1" parent="1">
          <mxGeometry x="540" y="150" width="100" height="70" as="geometry" />
        </mxCell>
        <mxCell id="gtQ-v5I-BbY9PMy45WMs-77" style="edgeStyle=orthogonalEdgeStyle;rounded=0;orthogonalLoop=1;jettySize=auto;html=1;entryX=1;entryY=0.5;entryDx=0;entryDy=0;" edge="1" parent="1" source="gtQ-v5I-BbY9PMy45WMs-76" target="gtQ-v5I-BbY9PMy45WMs-22">
          <mxGeometry relative="1" as="geometry">
            <Array as="points">
              <mxPoint x="700" y="90" />
            </Array>
          </mxGeometry>
        </mxCell>
        <mxCell id="gtQ-v5I-BbY9PMy45WMs-76" value="Enviar Solicitação de Amizade" style="ellipse;whiteSpace=wrap;html=1;" vertex="1" parent="1">
          <mxGeometry x="650" y="150" width="100" height="70" as="geometry" />
        </mxCell>
        <mxCell id="gtQ-v5I-BbY9PMy45WMs-81" style="edgeStyle=orthogonalEdgeStyle;rounded=0;orthogonalLoop=1;jettySize=auto;html=1;entryX=1;entryY=0.5;entryDx=0;entryDy=0;" edge="1" parent="1" source="gtQ-v5I-BbY9PMy45WMs-78" target="gtQ-v5I-BbY9PMy45WMs-22">
          <mxGeometry relative="1" as="geometry">
            <Array as="points">
              <mxPoint x="820" y="90" />
            </Array>
          </mxGeometry>
        </mxCell>
        <mxCell id="gtQ-v5I-BbY9PMy45WMs-78" value="Aceitar Solicitação de Amizade" style="ellipse;whiteSpace=wrap;html=1;" vertex="1" parent="1">
          <mxGeometry x="770" y="150" width="100" height="70" as="geometry" />
        </mxCell>
        <mxCell id="gtQ-v5I-BbY9PMy45WMs-82" style="edgeStyle=orthogonalEdgeStyle;rounded=0;orthogonalLoop=1;jettySize=auto;html=1;entryX=0.5;entryY=1;entryDx=0;entryDy=0;" edge="1" parent="1" target="gtQ-v5I-BbY9PMy45WMs-76">
          <mxGeometry relative="1" as="geometry">
            <mxPoint x="700" y="240" as="sourcePoint" />
          </mxGeometry>
        </mxCell>
        <mxCell id="gtQ-v5I-BbY9PMy45WMs-83" style="edgeStyle=orthogonalEdgeStyle;rounded=0;orthogonalLoop=1;jettySize=auto;html=1;" edge="1" parent="1" target="gtQ-v5I-BbY9PMy45WMs-78">
          <mxGeometry relative="1" as="geometry">
            <mxPoint x="700" y="240" as="sourcePoint" />
            <mxPoint x="820" y="180" as="targetPoint" />
            <Array as="points">
              <mxPoint x="700" y="240" />
              <mxPoint x="820" y="240" />
            </Array>
          </mxGeometry>
        </mxCell>
        <mxCell id="gtQ-v5I-BbY9PMy45WMs-91" style="edgeStyle=orthogonalEdgeStyle;rounded=0;orthogonalLoop=1;jettySize=auto;html=1;" edge="1" parent="1" source="gtQ-v5I-BbY9PMy45WMs-79">
          <mxGeometry relative="1" as="geometry">
            <mxPoint x="760" y="240" as="targetPoint" />
            <Array as="points">
              <mxPoint x="700" y="350" />
              <mxPoint x="760" y="350" />
            </Array>
          </mxGeometry>
        </mxCell>
        <mxCell id="gtQ-v5I-BbY9PMy45WMs-79" value="Cancelar Amizade" style="ellipse;whiteSpace=wrap;html=1;" vertex="1" parent="1">
          <mxGeometry x="650" y="380" width="100" height="70" as="geometry" />
        </mxCell>
        <mxCell id="gtQ-v5I-BbY9PMy45WMs-84" style="edgeStyle=orthogonalEdgeStyle;rounded=0;orthogonalLoop=1;jettySize=auto;html=1;entryX=1;entryY=0.5;entryDx=0;entryDy=0;" edge="1" parent="1" source="gtQ-v5I-BbY9PMy45WMs-80" target="gtQ-v5I-BbY9PMy45WMs-22">
          <mxGeometry relative="1" as="geometry">
            <Array as="points">
              <mxPoint x="940" y="90" />
            </Array>
          </mxGeometry>
        </mxCell>
        <mxCell id="gtQ-v5I-BbY9PMy45WMs-80" value="Cancelar Solicitação de Amizade" style="ellipse;whiteSpace=wrap;html=1;" vertex="1" parent="1">
          <mxGeometry x="890" y="150" width="100" height="70" as="geometry" />
        </mxCell>
        <mxCell id="gtQ-v5I-BbY9PMy45WMs-86" style="edgeStyle=orthogonalEdgeStyle;rounded=0;orthogonalLoop=1;jettySize=auto;html=1;entryX=1;entryY=0.5;entryDx=0;entryDy=0;exitX=0.5;exitY=0;exitDx=0;exitDy=0;" edge="1" parent="1" source="gtQ-v5I-BbY9PMy45WMs-85" target="gtQ-v5I-BbY9PMy45WMs-22">
          <mxGeometry relative="1" as="geometry">
            <Array as="points">
              <mxPoint x="1060" y="90" />
            </Array>
          </mxGeometry>
        </mxCell>
        <mxCell id="gtQ-v5I-BbY9PMy45WMs-85" value="Editar Perfil" style="ellipse;whiteSpace=wrap;html=1;" vertex="1" parent="1">
          <mxGeometry x="1010" y="150" width="100" height="70" as="geometry" />
        </mxCell>
        <mxCell id="gtQ-v5I-BbY9PMy45WMs-89" style="edgeStyle=orthogonalEdgeStyle;rounded=0;orthogonalLoop=1;jettySize=auto;html=1;" edge="1" parent="1" source="gtQ-v5I-BbY9PMy45WMs-87">
          <mxGeometry relative="1" as="geometry">
            <mxPoint x="760" y="240" as="targetPoint" />
            <Array as="points">
              <mxPoint x="820" y="350" />
              <mxPoint x="760" y="350" />
            </Array>
          </mxGeometry>
        </mxCell>
        <mxCell id="gtQ-v5I-BbY9PMy45WMs-87" value="Exibir Lista de Favoritos do Amigo" style="ellipse;whiteSpace=wrap;html=1;" vertex="1" parent="1">
          <mxGeometry x="770" y="380" width="100" height="70" as="geometry" />
        </mxCell>
        <mxCell id="gtQ-v5I-BbY9PMy45WMs-93" style="edgeStyle=orthogonalEdgeStyle;rounded=0;orthogonalLoop=1;jettySize=auto;html=1;entryX=1;entryY=0.5;entryDx=0;entryDy=0;" edge="1" parent="1" source="gtQ-v5I-BbY9PMy45WMs-92" target="gtQ-v5I-BbY9PMy45WMs-87">
          <mxGeometry relative="1" as="geometry" />
        </mxCell>
        <mxCell id="gtQ-v5I-BbY9PMy45WMs-92" value="Adicionar Produto do Amigo ao Carrinho" style="ellipse;whiteSpace=wrap;html=1;" vertex="1" parent="1">
          <mxGeometry x="900" y="380" width="100" height="70" as="geometry" />
        </mxCell>
        <mxCell id="gtQ-v5I-BbY9PMy45WMs-95" style="edgeStyle=orthogonalEdgeStyle;rounded=0;orthogonalLoop=1;jettySize=auto;html=1;entryX=1;entryY=0.5;entryDx=0;entryDy=0;" edge="1" parent="1" source="gtQ-v5I-BbY9PMy45WMs-94" target="gtQ-v5I-BbY9PMy45WMs-22">
          <mxGeometry relative="1" as="geometry">
            <Array as="points">
              <mxPoint x="1180" y="90" />
            </Array>
          </mxGeometry>
        </mxCell>
        <mxCell id="gtQ-v5I-BbY9PMy45WMs-94" value="Fazer Logout" style="ellipse;whiteSpace=wrap;html=1;" vertex="1" parent="1">
          <mxGeometry x="1130" y="150" width="100" height="70" as="geometry" />
        </mxCell>
        <mxCell id="gtQ-v5I-BbY9PMy45WMs-97" style="edgeStyle=orthogonalEdgeStyle;rounded=0;orthogonalLoop=1;jettySize=auto;html=1;entryX=1;entryY=0.5;entryDx=0;entryDy=0;" edge="1" parent="1" source="gtQ-v5I-BbY9PMy45WMs-96" target="gtQ-v5I-BbY9PMy45WMs-22">
          <mxGeometry relative="1" as="geometry">
            <Array as="points">
              <mxPoint x="1302" y="90" />
            </Array>
          </mxGeometry>
        </mxCell>
        <mxCell id="gtQ-v5I-BbY9PMy45WMs-96" value="Visualizar Produto" style="ellipse;whiteSpace=wrap;html=1;" vertex="1" parent="1">
          <mxGeometry x="1252" y="150" width="100" height="70" as="geometry" />
        </mxCell>
        <mxCell id="gtQ-v5I-BbY9PMy45WMs-101" style="edgeStyle=orthogonalEdgeStyle;rounded=0;orthogonalLoop=1;jettySize=auto;html=1;entryX=1;entryY=0.5;entryDx=0;entryDy=0;" edge="1" parent="1" source="gtQ-v5I-BbY9PMy45WMs-99" target="gtQ-v5I-BbY9PMy45WMs-96">
          <mxGeometry relative="1" as="geometry" />
        </mxCell>
        <mxCell id="gtQ-v5I-BbY9PMy45WMs-99" value="Calcular Frete" style="ellipse;whiteSpace=wrap;html=1;" vertex="1" parent="1">
          <mxGeometry x="1372" y="150" width="100" height="70" as="geometry" />
        </mxCell>
      </root>
    </mxGraphModel>
  </diagram>
</mxfile>
